<mxfile host="app.diagrams.net" modified="2023-07-22T16:13:38.112Z" agent="Mozilla/5.0 (X11; Ubuntu; Linux x86_64; rv:109.0) Gecko/20100101 Firefox/115.0" etag="JtFVoYwhohpuWElGGCa3" version="21.3.7" type="github">
  <diagram name="Page-1" id="YLBHLtmHv3EPnzO0F1Ap">
    <mxGraphModel dx="1226" dy="678" grid="1" gridSize="10" guides="1" tooltips="1" connect="1" arrows="1" fold="1" page="1" pageScale="1" pageWidth="850" pageHeight="1100" math="0" shadow="0">
      <root>
        <mxCell id="0" />
        <mxCell id="1" parent="0" />
        <mxCell id="IRONhRn8OpuStv1zahXF-1" value="" style="rounded=0;whiteSpace=wrap;html=1;fillColor=none;" vertex="1" parent="1">
          <mxGeometry x="110" y="123" width="270" height="210" as="geometry" />
        </mxCell>
        <mxCell id="IRONhRn8OpuStv1zahXF-2" value="PC" style="rounded=0;whiteSpace=wrap;html=1;shadow=1;" vertex="1" parent="1">
          <mxGeometry x="130" y="178" width="60" height="30" as="geometry" />
        </mxCell>
        <mxCell id="IRONhRn8OpuStv1zahXF-3" value="" style="shape=table;startSize=0;container=1;collapsible=0;childLayout=tableLayout;shadow=1;" vertex="1" parent="1">
          <mxGeometry x="210" y="143" width="60" height="100" as="geometry" />
        </mxCell>
        <mxCell id="IRONhRn8OpuStv1zahXF-4" value="" style="shape=tableRow;horizontal=0;startSize=0;swimlaneHead=0;swimlaneBody=0;strokeColor=inherit;top=0;left=0;bottom=0;right=0;collapsible=0;dropTarget=0;fillColor=none;points=[[0,0.5],[1,0.5]];portConstraint=eastwest;" vertex="1" parent="IRONhRn8OpuStv1zahXF-3">
          <mxGeometry width="60" height="20" as="geometry" />
        </mxCell>
        <mxCell id="IRONhRn8OpuStv1zahXF-5" value="" style="shape=partialRectangle;html=1;whiteSpace=wrap;connectable=0;strokeColor=inherit;overflow=hidden;fillColor=none;top=0;left=0;bottom=0;right=0;pointerEvents=1;" vertex="1" parent="IRONhRn8OpuStv1zahXF-4">
          <mxGeometry width="60" height="20" as="geometry">
            <mxRectangle width="60" height="20" as="alternateBounds" />
          </mxGeometry>
        </mxCell>
        <mxCell id="IRONhRn8OpuStv1zahXF-6" value="" style="shape=tableRow;horizontal=0;startSize=0;swimlaneHead=0;swimlaneBody=0;strokeColor=inherit;top=0;left=0;bottom=0;right=0;collapsible=0;dropTarget=0;fillColor=none;points=[[0,0.5],[1,0.5]];portConstraint=eastwest;" vertex="1" parent="IRONhRn8OpuStv1zahXF-3">
          <mxGeometry y="20" width="60" height="20" as="geometry" />
        </mxCell>
        <mxCell id="IRONhRn8OpuStv1zahXF-7" value="" style="shape=partialRectangle;html=1;whiteSpace=wrap;connectable=0;strokeColor=inherit;overflow=hidden;fillColor=none;top=0;left=0;bottom=0;right=0;pointerEvents=1;" vertex="1" parent="IRONhRn8OpuStv1zahXF-6">
          <mxGeometry width="60" height="20" as="geometry">
            <mxRectangle width="60" height="20" as="alternateBounds" />
          </mxGeometry>
        </mxCell>
        <mxCell id="IRONhRn8OpuStv1zahXF-8" value="" style="shape=tableRow;horizontal=0;startSize=0;swimlaneHead=0;swimlaneBody=0;strokeColor=inherit;top=0;left=0;bottom=0;right=0;collapsible=0;dropTarget=0;fillColor=none;points=[[0,0.5],[1,0.5]];portConstraint=eastwest;" vertex="1" parent="IRONhRn8OpuStv1zahXF-3">
          <mxGeometry y="40" width="60" height="20" as="geometry" />
        </mxCell>
        <mxCell id="IRONhRn8OpuStv1zahXF-9" value="" style="shape=partialRectangle;html=1;whiteSpace=wrap;connectable=0;strokeColor=inherit;overflow=hidden;fillColor=none;top=0;left=0;bottom=0;right=0;pointerEvents=1;" vertex="1" parent="IRONhRn8OpuStv1zahXF-8">
          <mxGeometry width="60" height="20" as="geometry">
            <mxRectangle width="60" height="20" as="alternateBounds" />
          </mxGeometry>
        </mxCell>
        <mxCell id="IRONhRn8OpuStv1zahXF-10" value="" style="shape=tableRow;horizontal=0;startSize=0;swimlaneHead=0;swimlaneBody=0;strokeColor=inherit;top=0;left=0;bottom=0;right=0;collapsible=0;dropTarget=0;fillColor=none;points=[[0,0.5],[1,0.5]];portConstraint=eastwest;" vertex="1" parent="IRONhRn8OpuStv1zahXF-3">
          <mxGeometry y="60" width="60" height="20" as="geometry" />
        </mxCell>
        <mxCell id="IRONhRn8OpuStv1zahXF-11" value="" style="shape=partialRectangle;html=1;whiteSpace=wrap;connectable=0;strokeColor=inherit;overflow=hidden;fillColor=none;top=0;left=0;bottom=0;right=0;pointerEvents=1;" vertex="1" parent="IRONhRn8OpuStv1zahXF-10">
          <mxGeometry width="60" height="20" as="geometry">
            <mxRectangle width="60" height="20" as="alternateBounds" />
          </mxGeometry>
        </mxCell>
        <mxCell id="IRONhRn8OpuStv1zahXF-12" value="" style="shape=tableRow;horizontal=0;startSize=0;swimlaneHead=0;swimlaneBody=0;strokeColor=inherit;top=0;left=0;bottom=0;right=0;collapsible=0;dropTarget=0;fillColor=none;points=[[0,0.5],[1,0.5]];portConstraint=eastwest;" vertex="1" parent="IRONhRn8OpuStv1zahXF-3">
          <mxGeometry y="80" width="60" height="20" as="geometry" />
        </mxCell>
        <mxCell id="IRONhRn8OpuStv1zahXF-13" value="" style="shape=partialRectangle;html=1;whiteSpace=wrap;connectable=0;strokeColor=inherit;overflow=hidden;fillColor=none;top=0;left=0;bottom=0;right=0;pointerEvents=1;" vertex="1" parent="IRONhRn8OpuStv1zahXF-12">
          <mxGeometry width="60" height="20" as="geometry">
            <mxRectangle width="60" height="20" as="alternateBounds" />
          </mxGeometry>
        </mxCell>
        <mxCell id="IRONhRn8OpuStv1zahXF-14" value="ALU" style="rounded=0;whiteSpace=wrap;html=1;shadow=1;" vertex="1" parent="1">
          <mxGeometry x="310" y="143" width="50" height="100" as="geometry" />
        </mxCell>
        <mxCell id="IRONhRn8OpuStv1zahXF-15" value="Bus interface" style="rounded=0;whiteSpace=wrap;html=1;shadow=1;" vertex="1" parent="1">
          <mxGeometry x="130" y="283" width="140" height="30" as="geometry" />
        </mxCell>
        <mxCell id="IRONhRn8OpuStv1zahXF-16" value="&lt;div&gt;I/O&lt;/div&gt;&lt;div&gt;bridge&lt;br&gt;&lt;/div&gt;" style="rounded=0;whiteSpace=wrap;html=1;shadow=1;" vertex="1" parent="1">
          <mxGeometry x="440" y="273" width="60" height="50" as="geometry" />
        </mxCell>
        <mxCell id="IRONhRn8OpuStv1zahXF-17" value="&lt;div&gt;Main&lt;/div&gt;&lt;div&gt;memory&lt;br&gt;&lt;/div&gt;" style="rounded=0;whiteSpace=wrap;html=1;shadow=1;" vertex="1" parent="1">
          <mxGeometry x="580" y="273" width="60" height="50" as="geometry" />
        </mxCell>
        <mxCell id="IRONhRn8OpuStv1zahXF-18" value="" style="shape=flexArrow;endArrow=classic;startArrow=classic;html=1;rounded=0;" edge="1" parent="1">
          <mxGeometry width="100" height="100" relative="1" as="geometry">
            <mxPoint x="110" y="378" as="sourcePoint" />
            <mxPoint x="660" y="378" as="targetPoint" />
          </mxGeometry>
        </mxCell>
        <mxCell id="IRONhRn8OpuStv1zahXF-19" value="&lt;div&gt;USB&lt;/div&gt;&lt;div&gt;controller&lt;br&gt;&lt;/div&gt;" style="rounded=0;whiteSpace=wrap;html=1;shadow=1;" vertex="1" parent="1">
          <mxGeometry x="160" y="433" width="80" height="40" as="geometry" />
        </mxCell>
        <mxCell id="IRONhRn8OpuStv1zahXF-22" value="&lt;div&gt;Graphics&lt;/div&gt;&lt;div&gt;adapter&lt;br&gt;&lt;/div&gt;" style="rounded=0;whiteSpace=wrap;html=1;shadow=1;" vertex="1" parent="1">
          <mxGeometry x="290" y="433" width="80" height="40" as="geometry" />
        </mxCell>
        <mxCell id="IRONhRn8OpuStv1zahXF-23" value="&lt;div&gt;Disk&lt;/div&gt;&lt;div&gt;controller&lt;br&gt;&lt;/div&gt;" style="rounded=0;whiteSpace=wrap;html=1;shadow=1;" vertex="1" parent="1">
          <mxGeometry x="480" y="433" width="80" height="40" as="geometry" />
        </mxCell>
        <mxCell id="IRONhRn8OpuStv1zahXF-24" value="" style="shape=flexArrow;endArrow=classic;html=1;rounded=0;entryX=0;entryY=0.25;entryDx=0;entryDy=0;exitX=0.983;exitY=0.2;exitDx=0;exitDy=0;exitPerimeter=0;endSize=4;startSize=4;" edge="1" parent="1" source="IRONhRn8OpuStv1zahXF-6" target="IRONhRn8OpuStv1zahXF-14">
          <mxGeometry width="50" height="50" relative="1" as="geometry">
            <mxPoint x="410" y="443" as="sourcePoint" />
            <mxPoint x="460" y="393" as="targetPoint" />
          </mxGeometry>
        </mxCell>
        <mxCell id="IRONhRn8OpuStv1zahXF-25" value="" style="shape=flexArrow;endArrow=classic;html=1;rounded=0;entryX=1;entryY=0.5;entryDx=0;entryDy=0;endSize=4;startSize=4;" edge="1" parent="1" target="IRONhRn8OpuStv1zahXF-10">
          <mxGeometry width="50" height="50" relative="1" as="geometry">
            <mxPoint x="310" y="213" as="sourcePoint" />
            <mxPoint x="460" y="393" as="targetPoint" />
          </mxGeometry>
        </mxCell>
        <mxCell id="IRONhRn8OpuStv1zahXF-27" value="" style="endArrow=classic;startArrow=classic;html=1;rounded=0;entryX=0.5;entryY=1;entryDx=0;entryDy=0;exitX=0.5;exitY=0;exitDx=0;exitDy=0;exitPerimeter=0;" edge="1" parent="1" target="IRONhRn8OpuStv1zahXF-23">
          <mxGeometry width="50" height="50" relative="1" as="geometry">
            <mxPoint x="520" y="513" as="sourcePoint" />
            <mxPoint x="440" y="413" as="targetPoint" />
          </mxGeometry>
        </mxCell>
        <mxCell id="IRONhRn8OpuStv1zahXF-33" value="" style="endArrow=classic;html=1;rounded=0;entryX=0.5;entryY=1;entryDx=0;entryDy=0;exitX=0.5;exitY=0;exitDx=0;exitDy=0;exitPerimeter=0;" edge="1" parent="1" target="IRONhRn8OpuStv1zahXF-19">
          <mxGeometry width="50" height="50" relative="1" as="geometry">
            <mxPoint x="200" y="513" as="sourcePoint" />
            <mxPoint x="460" y="423" as="targetPoint" />
          </mxGeometry>
        </mxCell>
        <mxCell id="IRONhRn8OpuStv1zahXF-35" value="" style="endArrow=classic;html=1;rounded=0;exitX=0.5;exitY=1;exitDx=0;exitDy=0;entryX=0.5;entryY=0;entryDx=0;entryDy=0;" edge="1" parent="1" source="IRONhRn8OpuStv1zahXF-22">
          <mxGeometry width="50" height="50" relative="1" as="geometry">
            <mxPoint x="410" y="473" as="sourcePoint" />
            <mxPoint x="330" y="513" as="targetPoint" />
          </mxGeometry>
        </mxCell>
        <mxCell id="IRONhRn8OpuStv1zahXF-36" value="" style="shape=flexArrow;endArrow=classic;html=1;rounded=0;entryX=0.5;entryY=0;entryDx=0;entryDy=0;" edge="1" parent="1" target="IRONhRn8OpuStv1zahXF-19">
          <mxGeometry width="50" height="50" relative="1" as="geometry">
            <mxPoint x="200" y="383" as="sourcePoint" />
            <mxPoint x="460" y="403" as="targetPoint" />
          </mxGeometry>
        </mxCell>
        <mxCell id="IRONhRn8OpuStv1zahXF-37" value="" style="shape=flexArrow;endArrow=classic;html=1;rounded=0;entryX=0.5;entryY=0;entryDx=0;entryDy=0;" edge="1" parent="1">
          <mxGeometry width="50" height="50" relative="1" as="geometry">
            <mxPoint x="329.5" y="383" as="sourcePoint" />
            <mxPoint x="329.5" y="433" as="targetPoint" />
          </mxGeometry>
        </mxCell>
        <mxCell id="IRONhRn8OpuStv1zahXF-39" value="" style="shape=flexArrow;endArrow=classic;html=1;rounded=0;entryX=0.5;entryY=0;entryDx=0;entryDy=0;" edge="1" parent="1">
          <mxGeometry width="50" height="50" relative="1" as="geometry">
            <mxPoint x="519.5" y="383" as="sourcePoint" />
            <mxPoint x="519.5" y="433" as="targetPoint" />
          </mxGeometry>
        </mxCell>
        <mxCell id="IRONhRn8OpuStv1zahXF-40" value="" style="shape=flexArrow;endArrow=classic;html=1;rounded=0;entryX=0.5;entryY=1;entryDx=0;entryDy=0;" edge="1" parent="1" target="IRONhRn8OpuStv1zahXF-16">
          <mxGeometry width="50" height="50" relative="1" as="geometry">
            <mxPoint x="470" y="373" as="sourcePoint" />
            <mxPoint x="460" y="403" as="targetPoint" />
          </mxGeometry>
        </mxCell>
        <mxCell id="IRONhRn8OpuStv1zahXF-41" value="" style="shape=flexArrow;endArrow=classic;startArrow=classic;html=1;rounded=0;entryX=0;entryY=0.5;entryDx=0;entryDy=0;exitX=1;exitY=0.5;exitDx=0;exitDy=0;endSize=4;startSize=4;" edge="1" parent="1" source="IRONhRn8OpuStv1zahXF-16" target="IRONhRn8OpuStv1zahXF-17">
          <mxGeometry width="100" height="100" relative="1" as="geometry">
            <mxPoint x="390" y="483" as="sourcePoint" />
            <mxPoint x="490" y="383" as="targetPoint" />
          </mxGeometry>
        </mxCell>
        <mxCell id="IRONhRn8OpuStv1zahXF-42" value="" style="shape=flexArrow;endArrow=classic;startArrow=classic;html=1;rounded=0;entryX=0;entryY=0.5;entryDx=0;entryDy=0;exitX=1;exitY=0.5;exitDx=0;exitDy=0;endSize=4;startSize=4;strokeColor=default;" edge="1" parent="1" source="IRONhRn8OpuStv1zahXF-15" target="IRONhRn8OpuStv1zahXF-16">
          <mxGeometry width="100" height="100" relative="1" as="geometry">
            <mxPoint x="390" y="483" as="sourcePoint" />
            <mxPoint x="490" y="383" as="targetPoint" />
          </mxGeometry>
        </mxCell>
        <mxCell id="IRONhRn8OpuStv1zahXF-43" value="" style="shape=flexArrow;endArrow=classic;startArrow=classic;html=1;rounded=0;entryX=0.5;entryY=1;entryDx=0;entryDy=0;endSize=4;startSize=4;" edge="1" parent="1" target="IRONhRn8OpuStv1zahXF-3">
          <mxGeometry width="100" height="100" relative="1" as="geometry">
            <mxPoint x="240" y="283" as="sourcePoint" />
            <mxPoint x="490" y="383" as="targetPoint" />
          </mxGeometry>
        </mxCell>
        <mxCell id="IRONhRn8OpuStv1zahXF-44" value="Mouse" style="text;html=1;strokeColor=none;fillColor=none;align=center;verticalAlign=middle;whiteSpace=wrap;rounded=0;" vertex="1" parent="1">
          <mxGeometry x="170" y="512" width="60" height="30" as="geometry" />
        </mxCell>
        <mxCell id="IRONhRn8OpuStv1zahXF-45" value="Display" style="text;html=1;strokeColor=none;fillColor=none;align=center;verticalAlign=middle;whiteSpace=wrap;rounded=0;" vertex="1" parent="1">
          <mxGeometry x="300" y="512" width="60" height="30" as="geometry" />
        </mxCell>
        <mxCell id="IRONhRn8OpuStv1zahXF-46" value="Disk" style="shape=cylinder3;whiteSpace=wrap;html=1;boundedLbl=1;backgroundOutline=1;size=15;" vertex="1" parent="1">
          <mxGeometry x="490" y="512" width="60" height="50" as="geometry" />
        </mxCell>
        <mxCell id="IRONhRn8OpuStv1zahXF-47" value="Register file" style="text;html=1;strokeColor=none;fillColor=none;align=center;verticalAlign=middle;whiteSpace=wrap;rounded=0;" vertex="1" parent="1">
          <mxGeometry x="205" y="119" width="70" height="30" as="geometry" />
        </mxCell>
        <mxCell id="IRONhRn8OpuStv1zahXF-48" value="CPU" style="text;html=1;strokeColor=none;fillColor=none;align=center;verticalAlign=middle;whiteSpace=wrap;rounded=0;" vertex="1" parent="1">
          <mxGeometry x="110" y="93" width="40" height="30" as="geometry" />
        </mxCell>
      </root>
    </mxGraphModel>
  </diagram>
</mxfile>
